<svg version="1.1" id="Layer_1" xmlns="http://www.w3.org/2000/svg" xmlns:xlink="http://www.w3.org/1999/xlink" viewBox="0 0 512 512" xml:space="preserve">
    <path style="fill:#80CDD8;" d="M299.452,273.769h-86.904l-13.579,176.376C196.26,483.465,222.571,512,256,512l0,0  c33.429,0,59.739-28.535,57.032-61.855L299.452,273.769z"/>
    <path style="fill:#5293A9;" d="M299.452,273.769H256c0,0,0,201.002,0,238.231l0,0c33.429,0,59.739-28.535,57.032-61.855  L299.452,273.769z"/>
    <polygon style="fill:#E68D2C;" points="398.884,0 113.116,0 124.782,202.495 387.218,202.495 "/>
    <polygon style="fill:#E06B34;" points="398.884,0 256,0 256,202.495 387.218,202.495 "/>
    <rect x="169.45" style="fill:#E9E9E9;" width="33.391" height="95.21"/>
    <rect x="309.159" style="fill:#D4D4D4;" width="33.391" height="95.21"/>
    <rect x="239.304" style="fill:#E9E9E9;" width="33.391" height="73.928"/>
    <rect x="256" style="fill:#D4D4D4;" width="16.696" height="73.928"/>
    <path style="fill:#A8EAEF;" d="M363.294,283.059H148.706c-23.548,0-42.636-19.089-42.636-42.636v-49.997H405.93v49.997  C405.93,263.97,386.842,283.059,363.294,283.059z"/>
    <path style="fill:#80CDD8;" d="M363.294,283.059H256v-92.633h149.93v49.997C405.93,263.97,386.842,283.059,363.294,283.059z"/>
    </svg>