<svg xmlns="http://www.w3.org/2000/svg" width="23.065" height="24" viewBox="0 0 23.065 24">
  <g id="Group_1" data-name="Group 1" transform="translate(-1245 -627)">
    <path id="iconmonstr-badge-8" d="M10.557.472a2.446,2.446,0,0,1,2.886,0c2.059,1.506,1.616,1.362,4.166,1.354a2.443,2.443,0,0,1,2.334,1.7c.78,2.427.507,2.052,2.575,3.544a2.445,2.445,0,0,1,.892,2.745c-.794,2.417-.8,1.953,0,4.38a2.443,2.443,0,0,1-.892,2.745c-2.068,1.491-1.794,1.116-2.575,3.544a2.442,2.442,0,0,1-2.334,1.7c-2.551-.008-2.108-.152-4.166,1.354a2.446,2.446,0,0,1-2.886,0c-2.059-1.5-1.616-1.363-4.166-1.354a2.443,2.443,0,0,1-2.334-1.7c-.78-2.43-.511-2.055-2.575-3.544A2.445,2.445,0,0,1,.59,14.191c.8-2.417.8-1.953,0-4.38a2.444,2.444,0,0,1,.891-2.746C3.543,5.576,3.276,5.954,4.056,3.521a2.442,2.442,0,0,1,2.334-1.7c2.545.008,2.1.161,4.167-1.353Z" transform="translate(1244.533 626.999)" fill="#0f4c82"/>
    <path id="Path_1" data-name="Path 1" d="M3.714-3.282V-4.2H.42V0H1.608V-1.44H3.462v-.918H1.608v-.924ZM6.87,0H8.142L7.236-1.32a1.394,1.394,0,0,0,.822-1.326c0-.96-.72-1.554-1.866-1.554H4.272V0H5.46V-1.116h.648ZM6.858-2.646c0,.384-.246.612-.738.612H5.46v-1.23h.66C6.612-3.264,6.858-3.036,6.858-2.646ZM9.888-.918v-.768h1.866v-.888H9.888v-.708h2.118V-4.2H8.712V0h3.372V-.918Zm4.032,0v-.768h1.866v-.888H13.92v-.708h2.118V-4.2H12.744V0h3.372V-.918Z" transform="translate(1249 641)" fill="#fff"/>
  </g>
</svg>