<svg xmlns="http://www.w3.org/2000/svg" width="403.478" height="321.876" viewBox="0 0 403.478 321.876">
  <g id="Logo" transform="translate(-327.522 -194.525)">
    <g id="Circles" transform="translate(367.16 202.735)">
      <path id="Path_10" data-name="Path 10" d="M222.123,278.483a139.428,139.428,0,0,1-127.894-84.1h255.79a139.283,139.283,0,0,1-127.9,84.1Zm138.812-150.27Zm-277.623,0Zm277.623,0H83.312a139.237,139.237,0,0,1,277.623,0v0h0Z" transform="translate(-63.958 15.881)" fill="#f3f3f2"/>
      <path id="Path_17" data-name="Path 17" d="M158.165,335.146a158.734,158.734,0,0,1-148.69-103.4h8.86a150.358,150.358,0,0,0,279.659,0h8.859a158.379,158.379,0,0,1-148.689,103.4ZM8.293,165.576H0A158.455,158.455,0,0,1,125.258,21.48a33.527,33.527,0,0,0,.188,8.43A149.7,149.7,0,0,0,55.614,66.762a150.742,150.742,0,0,0-32.671,44.215,149.325,149.325,0,0,0-14.65,54.6Zm308.037,0h-8.291A150.211,150.211,0,0,0,190.883,29.91a33.523,33.523,0,0,0,.188-8.43,157.611,157.611,0,0,1,52.493,21.525,159.182,159.182,0,0,1,57.454,64.752,157.594,157.594,0,0,1,15.311,57.816Z" transform="translate(0 -21.48)" fill="#4f4f4f"/>
    </g>
    <g id="Brush" transform="translate(459.066 194.525)">
      <path id="Path_16" data-name="Path 16" d="M0,0H130.97V5H0Z" transform="translate(0.085 208.45)" fill="#0f4c82"/>
      <path id="Path_7" data-name="Path 7" d="M131.525,163.513H0V144.882a31.808,31.808,0,0,1,3.363-11.941,23.073,23.073,0,0,1,7.208-8.4,24.937,24.937,0,0,1,13.563-4.229,160.519,160.519,0,0,0,17.619-1.279c4.756-.784,7.723-2.08,9.619-4.2,2.3-2.577,3.12-6.525,2.658-12.8-.515-7-3.373-14.567-6.4-22.574a170.184,170.184,0,0,1-5.953-17.718A59.876,59.876,0,0,1,39.62,42.54a71.885,71.885,0,0,1,3-16.166A60.308,60.308,0,0,1,48.6,12.808a34.291,34.291,0,0,1,7.922-9.335A14.451,14.451,0,0,1,65.359,0l.234,0,.169.006L65.931,0l.234,0a14.453,14.453,0,0,1,8.842,3.474,34.287,34.287,0,0,1,7.923,9.334A60.3,60.3,0,0,1,88.9,26.373a71.891,71.891,0,0,1,3,16.167,59.885,59.885,0,0,1-2.058,19.191,170.213,170.213,0,0,1-5.953,17.718c-3.026,8.008-5.884,15.571-6.4,22.575-.462,6.276.358,10.224,2.658,12.8,1.9,2.124,4.863,3.421,9.619,4.2a160.519,160.519,0,0,0,17.619,1.279,24.937,24.937,0,0,1,13.563,4.229,23.073,23.073,0,0,1,7.208,8.4,31.8,31.8,0,0,1,3.363,11.941v18.63ZM65.57,18.577A11.718,11.718,0,1,0,77.287,30.3,11.732,11.732,0,0,0,65.57,18.577Z" transform="translate(0 0)" fill="#0f4c82"/>
      <path id="Path_23" data-name="Path 23" d="M0,0H130.97V4H0Z" transform="translate(0.085 215.45)" fill="#0f4c82"/>
      <path id="Path_24" data-name="Path 24" d="M0,0H130.97V3H0Z" transform="translate(0.085 221.45)" fill="#0f4c82"/>
      <path id="Path_25" data-name="Path 25" d="M0,0H130.97V3H0Z" transform="translate(0.085 226.45)" fill="#0f4c82"/>
      <path id="Path_26" data-name="Path 26" d="M0,0H130.97V3H0Z" transform="translate(0.085 231.45)" fill="#0f4c82"/>
      <path id="Path_27" data-name="Path 27" d="M0,0H130.97V3H0Z" transform="translate(0.085 236.45)" fill="#0f4c82"/>
    </g>
    <g id="Text" transform="translate(327.522 358.038)">
      <path id="Path_22" data-name="Path 22" d="M20.512-17.453a4.786,4.786,0,0,1,.5,1.159,5.312,5.312,0,0,1,.22,1.559,3.077,3.077,0,0,1-.66,2.2,2.365,2.365,0,0,1-1.779.68H14.275V6.735a11.1,11.1,0,0,1-1.359.24,14.515,14.515,0,0,1-1.879.12A4.527,4.527,0,0,1,8.1,6.375a3.351,3.351,0,0,1-.82-2.6V-11.856H1.242a4.786,4.786,0,0,1-.5-1.159,5.312,5.312,0,0,1-.22-1.559,3.077,3.077,0,0,1,.66-2.2,2.365,2.365,0,0,1,1.779-.68ZM31.627,6.735a11.1,11.1,0,0,1-1.359.24,14.515,14.515,0,0,1-1.879.12,4.527,4.527,0,0,1-2.939-.72,3.351,3.351,0,0,1-.82-2.6V-17.533q.48-.08,1.4-.22a12.208,12.208,0,0,1,1.839-.14,4.763,4.763,0,0,1,2.879.68,3.2,3.2,0,0,1,.88,2.639V-8.1H39.3v-9.435q.48-.08,1.4-.22a12.208,12.208,0,0,1,1.839-.14,4.56,4.56,0,0,1,2.879.72,3.329,3.329,0,0,1,.88,2.679V6.735a11.1,11.1,0,0,1-1.359.24,14.515,14.515,0,0,1-1.879.12,4.527,4.527,0,0,1-2.939-.72,3.351,3.351,0,0,1-.82-2.6V-2.581H31.627Zm23.588.16a3.674,3.674,0,0,1-2.719-1,3.674,3.674,0,0,1-1-2.719V-13.735a3.674,3.674,0,0,1,1-2.719,3.674,3.674,0,0,1,2.719-1H68.408a4.915,4.915,0,0,1,.5,1.119,4.92,4.92,0,0,1,.22,1.519,3.074,3.074,0,0,1-.64,2.159,2.3,2.3,0,0,1-1.759.68H58.293v3.718h9a4.914,4.914,0,0,1,.5,1.119,4.92,4.92,0,0,1,.22,1.519,3,3,0,0,1-.64,2.139,2.336,2.336,0,0,1-1.759.66H58.293v4.2H68.568a4.786,4.786,0,0,1,.5,1.159,5.312,5.312,0,0,1,.22,1.559,3,3,0,0,1-.64,2.139,2.336,2.336,0,0,1-1.759.66Z" transform="translate(-0.522 27.511)"/>
      <path id="Path_21" data-name="Path 21" d="M-105.726-.654V6.823a11.1,11.1,0,0,1-1.359.24,14.515,14.515,0,0,1-1.879.12,4.527,4.527,0,0,1-2.939-.72,3.351,3.351,0,0,1-.82-2.6V-15.087a1.757,1.757,0,0,1,.46-1.3,3.285,3.285,0,0,1,1.259-.74,15.043,15.043,0,0,1,3.218-.7,28.983,28.983,0,0,1,3.378-.22q5.517,0,8.436,2.359a7.789,7.789,0,0,1,2.919,6.4,8.242,8.242,0,0,1-.74,3.538,7.97,7.97,0,0,1-2.079,2.719A9.436,9.436,0,0,1-99.13-1.273a13.875,13.875,0,0,1-4.278.62Zm1.879-5.477a4.1,4.1,0,0,0,2.679-.82,2.852,2.852,0,0,0,1-2.339,2.937,2.937,0,0,0-.94-2.339,4.05,4.05,0,0,0-2.739-.82q-.64,0-1.059.02a6.545,6.545,0,0,0-.86.1v6.2ZM-85.776,6.983a3.674,3.674,0,0,1-2.719-1,3.674,3.674,0,0,1-1-2.719V-13.647a3.674,3.674,0,0,1,1-2.719,3.674,3.674,0,0,1,2.719-1h13.193a4.914,4.914,0,0,1,.5,1.119,4.921,4.921,0,0,1,.22,1.519,3.074,3.074,0,0,1-.64,2.159,2.3,2.3,0,0,1-1.759.68H-82.7V-8.17h9a4.914,4.914,0,0,1,.5,1.119,4.92,4.92,0,0,1,.22,1.519,3,3,0,0,1-.64,2.139,2.336,2.336,0,0,1-1.759.66H-82.7v4.2h10.275a4.785,4.785,0,0,1,.5,1.159,5.313,5.313,0,0,1,.22,1.559,3,3,0,0,1-.64,2.139,2.336,2.336,0,0,1-1.759.66ZM-47.755-9.449a7.177,7.177,0,0,1-1.179,4.058,9.5,9.5,0,0,1-3.138,2.939q.76,1.039,1.539,2t1.459,1.839q.68.88,1.219,1.639t.9,1.359a3.768,3.768,0,0,1-1.459,2.139,4.058,4.058,0,0,1-2.379.74,5.12,5.12,0,0,1-1.519-.2,3.674,3.674,0,0,1-1.119-.56,4.58,4.58,0,0,1-.88-.88,11.741,11.741,0,0,1-.76-1.119l-3.4-5.477h-2.119v7.8a11.1,11.1,0,0,1-1.359.24,14.515,14.515,0,0,1-1.879.12,4.527,4.527,0,0,1-2.939-.72,3.351,3.351,0,0,1-.82-2.6V-15.087a1.757,1.757,0,0,1,.46-1.3,3.285,3.285,0,0,1,1.259-.74,15,15,0,0,1,3.158-.7,31.682,31.682,0,0,1,3.838-.22q5.517,0,8.316,2.339A7.739,7.739,0,0,1-47.755-9.449ZM-58.67-6.291a4.6,4.6,0,0,0,2.759-.78,2.655,2.655,0,0,0,1.079-2.3,2.762,2.762,0,0,0-.98-2.3,4.969,4.969,0,0,0-3.1-.78q-.48,0-.9.04t-.86.12v6Zm15.432-7.356a3.674,3.674,0,0,1,1-2.719,3.674,3.674,0,0,1,2.719-1h13.313a4.786,4.786,0,0,1,.5,1.159,5.313,5.313,0,0,1,.22,1.559,3.077,3.077,0,0,1-.66,2.2,2.365,2.365,0,0,1-1.779.68h-8.4V-7.25h8.756a5.413,5.413,0,0,1,.52,1.139,4.72,4.72,0,0,1,.24,1.539,3,3,0,0,1-.66,2.179,2.4,2.4,0,0,1-1.779.66h-7V6.823a11.1,11.1,0,0,1-1.359.24,14.515,14.515,0,0,1-1.879.12,4.527,4.527,0,0,1-2.939-.72,3.351,3.351,0,0,1-.82-2.6ZM-18.29,6.983a3.674,3.674,0,0,1-2.719-1,3.674,3.674,0,0,1-1-2.719V-13.647a3.674,3.674,0,0,1,1-2.719,3.674,3.674,0,0,1,2.719-1H-5.1a4.914,4.914,0,0,1,.5,1.119,4.92,4.92,0,0,1,.22,1.519,3.074,3.074,0,0,1-.64,2.159,2.3,2.3,0,0,1-1.759.68h-8.436V-8.17h9a4.914,4.914,0,0,1,.5,1.119A4.92,4.92,0,0,1-5.5-5.531a3,3,0,0,1-.64,2.139,2.336,2.336,0,0,1-1.759.66h-7.316v4.2H-4.936a4.786,4.786,0,0,1,.5,1.159,5.312,5.312,0,0,1,.22,1.559,3,3,0,0,1-.64,2.139,2.336,2.336,0,0,1-1.759.66Zm36.982-20.83a3.108,3.108,0,0,1-.52,1.8,4.278,4.278,0,0,1-1.2,1.2,12.981,12.981,0,0,0-2.219-1.159,7.231,7.231,0,0,0-2.739-.48,5.893,5.893,0,0,0-4.718,1.9A7.916,7.916,0,0,0,5.659-5.251,7.394,7.394,0,0,0,7.438.126a6.589,6.589,0,0,0,4.938,1.819,7.742,7.742,0,0,0,2.779-.44,19.085,19.085,0,0,0,2.179-1,3.971,3.971,0,0,1,1.059,1.339,4.108,4.108,0,0,1,.38,1.819,3.081,3.081,0,0,1-.48,1.679,3.606,3.606,0,0,1-1.639,1.279,12.515,12.515,0,0,1-2.039.64,13.77,13.77,0,0,1-3.2.32,16.473,16.473,0,0,1-5.077-.76A11.391,11.391,0,0,1,2.22,4.5,10.649,10.649,0,0,1-.538.526a15.092,15.092,0,0,1-1-5.777,14.5,14.5,0,0,1,.98-5.517A11.635,11.635,0,0,1,2.12-14.807,11.272,11.272,0,0,1,6.1-17.285a14,14,0,0,1,4.878-.84,11.222,11.222,0,0,1,5.7,1.2A3.531,3.531,0,0,1,18.692-13.847Zm22.469-3.518a4.786,4.786,0,0,1,.5,1.159,5.312,5.312,0,0,1,.22,1.559,3.077,3.077,0,0,1-.66,2.2,2.365,2.365,0,0,1-1.779.68H34.924V6.823a11.1,11.1,0,0,1-1.359.24,14.515,14.515,0,0,1-1.879.12,4.527,4.527,0,0,1-2.939-.72,3.351,3.351,0,0,1-.82-2.6V-11.768H21.891a4.786,4.786,0,0,1-.5-1.159,5.312,5.312,0,0,1-.22-1.559,3.077,3.077,0,0,1,.66-2.2,2.365,2.365,0,0,1,1.779-.68Z" transform="translate(196.482 27.423)"/>
      <path id="Path_20" data-name="Path 20" d="M-103.493-.676V6.8a11.1,11.1,0,0,1-1.359.24,14.515,14.515,0,0,1-1.879.12,4.527,4.527,0,0,1-2.939-.72,3.351,3.351,0,0,1-.82-2.6V-15.108a1.757,1.757,0,0,1,.46-1.3,3.285,3.285,0,0,1,1.259-.74,15.042,15.042,0,0,1,3.218-.7,28.983,28.983,0,0,1,3.378-.22q5.517,0,8.436,2.359a7.789,7.789,0,0,1,2.919,6.4,8.242,8.242,0,0,1-.74,3.538,7.97,7.97,0,0,1-2.079,2.719A9.436,9.436,0,0,1-96.9-1.3a13.876,13.876,0,0,1-4.278.62Zm1.879-5.477a4.1,4.1,0,0,0,2.679-.82,2.852,2.852,0,0,0,1-2.339,2.937,2.937,0,0,0-.94-2.339,4.05,4.05,0,0,0-2.739-.82q-.64,0-1.059.02a6.545,6.545,0,0,0-.86.1v6.2ZM-74.948,1.8h-7.236q-.4,1.439-.7,2.679t-.58,2.319a10.155,10.155,0,0,1-1.179.34,6.91,6.91,0,0,1-1.5.14,5.229,5.229,0,0,1-3.019-.7,2.251,2.251,0,0,1-.98-1.939,4.058,4.058,0,0,1,.16-1.119q.16-.56.36-1.319.28-1.079.78-2.7t1.1-3.478q.6-1.859,1.279-3.8t1.279-3.678q.6-1.739,1.1-3.118t.78-2.1a8.463,8.463,0,0,1,2.059-.76,10.966,10.966,0,0,1,2.779-.36,10,10,0,0,1,3.538.58,3.068,3.068,0,0,1,1.979,1.859q.72,2.039,1.559,4.8t1.679,5.7q.84,2.939,1.639,5.8T-66.672,6a3.3,3.3,0,0,1-1.439.9,6.839,6.839,0,0,1-2.279.34,4.321,4.321,0,0,1-2.719-.64,3.83,3.83,0,0,1-1.119-2.039ZM-78.506-11.51q-.56,1.639-1.239,3.638t-1.319,4.278h4.958q-.56-2.279-1.139-4.3t-1.02-3.618ZM-59.635,7.161a4.527,4.527,0,0,1-2.939-.72,3.351,3.351,0,0,1-.82-2.6V-17.467q.48-.08,1.4-.22a12.208,12.208,0,0,1,1.839-.14,4.763,4.763,0,0,1,2.879.68,3.2,3.2,0,0,1,.88,2.639V6.8a11.1,11.1,0,0,1-1.359.24A14.515,14.515,0,0,1-59.635,7.161ZM-29.25,6a3.654,3.654,0,0,1-1.619.86,9.407,9.407,0,0,1-2.539.3,8.792,8.792,0,0,1-2.8-.44A3.875,3.875,0,0,1-38.366,4.6l-3.958-8.076q-.6-1.239-1.079-2.339t-1.039-2.539l-.28.08q.2,2.519.22,4.658t.02,4.1V6.841q-.44.08-1.319.2a13.3,13.3,0,0,1-1.8.12,4.282,4.282,0,0,1-2.819-.7,3.259,3.259,0,0,1-.78-2.5v-20.11a3.346,3.346,0,0,1,1.719-1.2,7.552,7.552,0,0,1,2.479-.4,8.62,8.62,0,0,1,2.819.46,3.815,3.815,0,0,1,2.139,2.1l4,8.076q.6,1.239,1.079,2.339t1.039,2.539l.16-.04q-.16-1.919-.18-3.618t-.02-3.258v-8.356q.44-.08,1.319-.2a13.3,13.3,0,0,1,1.8-.12,4.282,4.282,0,0,1,2.819.7,3.259,3.259,0,0,1,.78,2.5ZM-5.942-17.387a4.786,4.786,0,0,1,.5,1.159,5.312,5.312,0,0,1,.22,1.559,3.077,3.077,0,0,1-.66,2.2,2.365,2.365,0,0,1-1.779.68h-4.518V6.8a11.1,11.1,0,0,1-1.359.24,14.515,14.515,0,0,1-1.879.12,4.527,4.527,0,0,1-2.939-.72,3.351,3.351,0,0,1-.82-2.6V-11.79h-6.037a4.785,4.785,0,0,1-.5-1.159,5.312,5.312,0,0,1-.22-1.559,3.077,3.077,0,0,1,.66-2.2,2.365,2.365,0,0,1,1.779-.68ZM1.895,6.961a3.674,3.674,0,0,1-2.719-1,3.674,3.674,0,0,1-1-2.719V-13.669a3.674,3.674,0,0,1,1-2.719,3.674,3.674,0,0,1,2.719-1H15.088a4.914,4.914,0,0,1,.5,1.119,4.92,4.92,0,0,1,.22,1.519,3.074,3.074,0,0,1-.64,2.159,2.3,2.3,0,0,1-1.759.68H4.973v3.718h9a4.914,4.914,0,0,1,.5,1.119,4.92,4.92,0,0,1,.22,1.519,3,3,0,0,1-.64,2.139,2.336,2.336,0,0,1-1.759.66H4.973v4.2H15.248a4.786,4.786,0,0,1,.5,1.159,5.312,5.312,0,0,1,.22,1.559,3,3,0,0,1-.64,2.139,2.336,2.336,0,0,1-1.759.66ZM39.916-9.471a7.177,7.177,0,0,1-1.179,4.058A9.5,9.5,0,0,1,35.6-2.475q.76,1.039,1.539,2T38.6,1.363q.68.88,1.219,1.639t.9,1.359A3.768,3.768,0,0,1,39.256,6.5a4.058,4.058,0,0,1-2.379.74,5.12,5.12,0,0,1-1.519-.2,3.674,3.674,0,0,1-1.119-.56,4.58,4.58,0,0,1-.88-.88,11.742,11.742,0,0,1-.76-1.119L29.2-1H27.082V6.8a11.1,11.1,0,0,1-1.359.24,14.515,14.515,0,0,1-1.879.12,4.527,4.527,0,0,1-2.939-.72,3.351,3.351,0,0,1-.82-2.6V-15.108a1.757,1.757,0,0,1,.46-1.3,3.285,3.285,0,0,1,1.259-.74,15,15,0,0,1,3.158-.7,31.683,31.683,0,0,1,3.838-.22q5.517,0,8.316,2.339A7.739,7.739,0,0,1,39.916-9.471ZM29-6.313a4.6,4.6,0,0,0,2.759-.78,2.655,2.655,0,0,0,1.079-2.3,2.762,2.762,0,0,0-.98-2.3,4.969,4.969,0,0,0-3.1-.78q-.48,0-.9.04t-.86.12v6Z" transform="translate(362.763 27.445)"/>
      <g id="Line" transform="translate(0)">
        <path id="Path_18" data-name="Path 18" d="M329.992,313.13H733.47" transform="translate(-329.992 -313.13)" fill="none" stroke="#4f4f4f" stroke-width="2"/>
        <path id="Path_19" data-name="Path 19" d="M329.992,313.13H733.47" transform="translate(-329.992 -269.014)" fill="none" stroke="#4f4f4f" stroke-width="2"/>
      </g>
    </g>
  </g>
</svg>