<svg xmlns="http://www.w3.org/2000/svg" viewBox="280 540 400 400" width="40" height="42" fill="#22D3EE"><title>Illium Digital Media</title><path fill="#22D3EE" d="M504.63,549.26v38.17c-1.45.64-2.91,1.33-4.38,2-29,13.79-57.36,31.64-86,54.17V574.1a24.84,24.84,0,0,1,24.84-24.84Z"/><circle fill="#22D3EE" cx="641.36" cy="623.04" r="25.6"/><path fill="#22D3EE" d="M652.24,631.36a67.5,67.5,0,0,0-5.39-16.82A50.76,50.76,0,0,0,622,590.14a66.38,66.38,0,0,0-16.62-5l-4.28-.62c-1.41-.2-2.86-.2-4.29-.32-2.83-.29-5.69-.2-8.54-.22a136.86,136.86,0,0,0-16.95,1.53c-22.41,3.47-43.78,11.28-64.15,20.88-.86.39-1.7.81-2.53,1.23q-6.25,3-12.32,6.26a435.77,435.77,0,0,0-65.72,43.56c-4.16,3.3-8.25,6.65-12.32,10.07q-9.07,7.61-17.82,15.61c-33,30.71-63.24,65.16-86.29,105.18-11.43,20.05-21.16,41.47-26.33,65.31A130.43,130.43,0,0,0,281.21,872a102.78,102.78,0,0,0,.56,19.38,76.59,76.59,0,0,0,5.37,19.9A66.14,66.14,0,0,0,299,929.48a64.57,64.57,0,0,0,17.58,13A77.69,77.69,0,0,0,336.44,949a116.88,116.88,0,0,0,38.49.27,190.27,190.27,0,0,0,35.27-8.84,272,272,0,0,0,32.63-13.82,364.77,364.77,0,0,0,59-36.93c9.21-7,18-14.41,26.62-22s16.79-15.69,24.7-24S568.66,826.82,576,818s14.18-18,20.78-27.33a392.57,392.57,0,0,0,34.65-59.15,285.67,285.67,0,0,0,12.76-31.89,190.93,190.93,0,0,0,8.15-33.49C653.94,654.73,654.31,643,652.24,631.36Zm-7.63,17.09a111.89,111.89,0,0,1-2.51,15.83,175.79,175.79,0,0,1-10.25,30.66,262.74,262.74,0,0,1-15,28.87c-22.39,37.33-52.06,69.86-83.95,99.09a598.33,598.33,0,0,1-50.31,40.68q-13.16,9.34-26.75,17.83C446.72,887,437.46,892.22,428,897a278.21,278.21,0,0,1-28.77,12.49,179.1,179.1,0,0,1-29.3,8,86.61,86.61,0,0,1-28,.82A45.71,45.71,0,0,1,330,914.8a38.87,38.87,0,0,1-9.51-6.28,36.23,36.23,0,0,1-6.74-9.35,45.57,45.57,0,0,1-3.89-12.12,89.87,89.87,0,0,1,.14-28.71c3-20.07,10.54-40.29,19.85-59.62a375.54,375.54,0,0,1,33.67-55.66c6.4-8.86,13.17-17.48,20.19-25.93s14.48-16.5,22.06-24.45c2.81-2.88,5.64-5.74,8.52-8.57V773.4l26.1,11.75v-80.3a12,12,0,1,1,9.85,0v84.74l6.82,3.08v17.15a12,12,0,1,1-9.85,0V799l-32.92-14.8V885.11q6.18-2.77,12.27-5.82c9.8-4.92,19.4-10.34,28.84-16.15q8.52-5.31,16.86-11V763.86a12,12,0,1,1,9.85,0v81.5c.34-.24.68-.47,1-.72,1.26-.88,2.49-1.79,3.72-2.7q9.06-6.59,17.81-13.57V637.6l-24.83,39.86-.12,26.31a12,12,0,1,1-9.86.12l.14-29.3L504.64,619v-3.59c1.84-1,3.69-2,5.54-3a258.05,258.05,0,0,1,30.12-13.57A169.36,169.36,0,0,1,572,590.14a93.28,93.28,0,0,1,32.48-.2,57.71,57.71,0,0,1,15.14,5,49.06,49.06,0,0,1,12.54,9.34,47.55,47.55,0,0,1,8.3,13.12,55.83,55.83,0,0,1,3.89,15.15A87.66,87.66,0,0,1,644.61,648.45Z"/><polygon fill="#22D3EE" points="375.32 630.8 379.84 650.98 400.83 656.31 379.84 661.64 375.32 681.83 370.8 661.64 349.8 656.31 370.8 650.98 375.32 630.8"/><polygon fill="#22D3EE" points="361.39 623.41 362.77 629.6 369.21 631.23 362.77 632.86 361.39 639.05 360 632.86 353.57 631.23 360 629.6 361.39 623.41"/></svg>